# xmcd CD database file
#
# Track frame offsets:
#	150
#	50150
#	69003
#	87106
#	130848
#
# Disc length: 1928 seconds
#
# Revision: 0
# Processed by: cddbd v1.5.2PL0 Copyright (c) Steve Scherf et al.
# Submitted via: CDex 1.70beta2
#
DISCID=3a078605
DTITLE=Compilations - オルゴール療法
DYEAR=1900
DGENRE=New Age
TTITLE0=カノン
TTITLE1=アダージォ
TTITLE2=魔笛ほか
TTITLE3=ラ・カンパネラ
TTITLE4=麗しき5月の花のように
EXTD=
EXTT0=
EXTT1=
EXTT2=
EXTT3=
EXTT4=
PLAYORDER=
